<svg id="arrow-up-right" xmlns="http://www.w3.org/2000/svg" width="38.355" height="38.355" viewBox="0 0 38.355 38.355">
  <path id="Linha_17" data-name="Linha 17" d="M2.2,37.355A3.2,3.2,0,0,1-.064,31.9L31.9-.064a3.2,3.2,0,0,1,4.52,4.52L4.456,36.419A3.186,3.186,0,0,1,2.2,37.355Z" transform="translate(1 1)" fill="#fe3944"/>
  <path id="Caminho_1407" data-name="Caminho 1407" d="M41.159,44.355a3.2,3.2,0,0,1-3.2-3.2V12.392H9.2A3.2,3.2,0,1,1,9.2,6H41.159a3.2,3.2,0,0,1,3.2,3.2V41.159A3.2,3.2,0,0,1,41.159,44.355Z" transform="translate(-6 -6)" fill="#fe3944"/>
</svg>
