<svg xmlns="http://www.w3.org/2000/svg" width="14.924" height="14.439" viewBox="0 0 14.924 14.439">
  <g id="chevrons-down" transform="translate(-6 -5)">
    <path id="Caminho_1411" data-name="Caminho 1411" d="M13.462,19.219a1.381,1.381,0,0,1-.879-.3L6.364,13.761a.912.912,0,0,1,0-1.459,1.431,1.431,0,0,1,1.759,0l5.339,4.427L18.8,12.3a1.431,1.431,0,0,1,1.759,0,.912.912,0,0,1,0,1.459l-6.218,5.157A1.381,1.381,0,0,1,13.462,19.219Z" transform="translate(0 0.219)" fill="#fe403d"/>
    <path id="Caminho_1412" data-name="Caminho 1412" d="M13.462,12.219a1.381,1.381,0,0,1-.879-.3L6.364,6.761a.912.912,0,0,1,0-1.459,1.431,1.431,0,0,1,1.759,0L13.462,9.73,18.8,5.3a1.431,1.431,0,0,1,1.759,0,.912.912,0,0,1,0,1.459l-6.218,5.157A1.381,1.381,0,0,1,13.462,12.219Z" fill="#fe403d"/>
  </g>
</svg>
