<svg xmlns="http://www.w3.org/2000/svg" width="39" height="39.001" viewBox="0 0 39 39.001">
  <path id="Subtraction_1" data-name="Subtraction 1" d="M39,39H0V0H39V39ZM13.17,16.59A1.073,1.073,0,0,0,12.1,17.662v4.285a1.073,1.073,0,0,0,1.072,1.072h2.143v7.5a1.072,1.072,0,0,0,1.071,1.071h4.286a1.072,1.072,0,0,0,1.071-1.071v-7.5h2.143a1.069,1.069,0,0,0,1.04-.812l1.072-4.286A1.077,1.077,0,0,0,25.8,17a1.065,1.065,0,0,0-.844-.412H21.74V14.447h3.215a1.072,1.072,0,0,0,1.071-1.071V9.09a1.072,1.072,0,0,0-1.071-1.071H21.74a6.435,6.435,0,0,0-6.428,6.428V16.59ZM19.6,29.446H17.456v-7.5a1.073,1.073,0,0,0-1.072-1.071H14.241V18.733h2.143a1.073,1.073,0,0,0,1.072-1.071V14.447a4.29,4.29,0,0,1,4.285-4.286h2.143V12.3H21.74A2.145,2.145,0,0,0,19.6,14.447v3.215a1.072,1.072,0,0,0,1.071,1.071h2.913l-.535,2.143H20.669A1.072,1.072,0,0,0,19.6,21.947v7.5Z" fill="#fff"/>
</svg>
