<svg xmlns="http://www.w3.org/2000/svg" width="39" height="39.001" viewBox="0 0 39 39.001">
  <path id="Subtraction_2" data-name="Subtraction 2" d="M39,39H0V0H39V39ZM14.256,8.019a6.436,6.436,0,0,0-6.429,6.429V25.161a6.436,6.436,0,0,0,6.429,6.429H24.97A6.436,6.436,0,0,0,31.4,25.161V14.448A6.436,6.436,0,0,0,24.97,8.019ZM24.97,29.447H14.256A4.291,4.291,0,0,1,9.97,25.161V14.448a4.291,4.291,0,0,1,4.286-4.286H24.97a4.291,4.291,0,0,1,4.286,4.286V25.161A4.291,4.291,0,0,1,24.97,29.447ZM19.658,14.4a5.357,5.357,0,0,0,0,10.714,5.357,5.357,0,0,0,5.3-6.143,5.358,5.358,0,0,0-4.513-4.513A5.388,5.388,0,0,0,19.658,14.4Zm5.847-1.561a1.071,1.071,0,0,0,0,2.143h.011a1.071,1.071,0,1,0,0-2.143ZM19.661,22.973a3.215,3.215,0,1,1,1.444-.344A3.2,3.2,0,0,1,19.661,22.973Z" fill="#fff"/>
</svg>
