<svg xmlns="http://www.w3.org/2000/svg" width="39" height="39.001" viewBox="0 0 39 39.001">
  <path id="Subtraction_3" data-name="Subtraction 3" d="M39,39H0V0H39V39ZM25.052,21.629a1.218,1.218,0,0,1,1.217,1.217v8.518a1.218,1.218,0,0,0,1.217,1.217h4.868a1.218,1.218,0,0,0,1.216-1.217V22.846a8.518,8.518,0,1,0-17.035,0v8.518a1.218,1.218,0,0,0,1.217,1.217h4.868a1.218,1.218,0,0,0,1.216-1.217V22.846A1.218,1.218,0,0,1,25.052,21.629ZM8.015,15.545A1.218,1.218,0,0,0,6.8,16.762v14.6a1.218,1.218,0,0,0,1.217,1.217h4.868A1.218,1.218,0,0,0,14.1,31.364v-14.6a1.218,1.218,0,0,0-1.216-1.217Zm2.434-8.518a3.651,3.651,0,1,0,3.65,3.65A3.655,3.655,0,0,0,10.449,7.026ZM21.4,30.147H18.968v-7.3a6.084,6.084,0,0,1,12.169,0v7.3H28.7v-7.3a3.651,3.651,0,1,0-7.3,0v7.3Zm-9.734,0H9.232V17.979h2.434V30.146ZM10.449,11.894a1.217,1.217,0,1,1,1.218-1.217A1.218,1.218,0,0,1,10.449,11.894Z" fill="#fff"/>
</svg>
