<svg id="mail" xmlns="http://www.w3.org/2000/svg" width="26.609" height="21.771" viewBox="0 0 26.609 21.771">
  <path id="Caminho_1410" data-name="Caminho 1410" d="M4.628,3H23.98a3.633,3.633,0,0,1,3.628,3.628V21.142a3.633,3.633,0,0,1-3.628,3.628H4.628A3.633,3.633,0,0,1,1,21.142V6.628A3.633,3.633,0,0,1,4.628,3ZM23.98,22.352a1.211,1.211,0,0,0,1.209-1.209V6.628A1.211,1.211,0,0,0,23.98,5.419H4.628A1.211,1.211,0,0,0,3.419,6.628V21.142a1.211,1.211,0,0,0,1.209,1.209Z" transform="translate(-1 -3)" fill="#3f3c9a"/>
  <path id="Caminho_1411" data-name="Caminho 1411" d="M14.3,15.885a1.208,1.208,0,0,1-.694-.219L1.516,7.2A1.209,1.209,0,1,1,2.9,5.219L14.3,13.2l11.4-7.981A1.209,1.209,0,1,1,27.093,7.2L15,15.667A1.208,1.208,0,0,1,14.3,15.885Z" transform="translate(-1 -2.581)" fill="#3f3c9a"/>
</svg>
