<svg id="map-pin" xmlns="http://www.w3.org/2000/svg" width="27.412" height="32.895" viewBox="0 0 27.412 32.895">
  <path id="Caminho_1412" data-name="Caminho 1412" d="M15.706,0A13.722,13.722,0,0,1,29.412,13.706a15.663,15.663,0,0,1-2.095,7.488,29,29,0,0,1-4.449,5.961,41.588,41.588,0,0,1-6.4,5.509,1.371,1.371,0,0,1-1.521,0,41.588,41.588,0,0,1-6.4-5.509,29,29,0,0,1-4.449-5.961A15.663,15.663,0,0,1,2,13.706,13.722,13.722,0,0,1,15.706,0Zm0,29.839c2.6-1.929,10.965-8.713,10.965-16.133a10.965,10.965,0,0,0-21.93,0C4.741,21.126,13.106,27.91,15.706,29.839Z" transform="translate(-2)" fill="#3f3c9a"/>
  <path id="Elipse_12" data-name="Elipse 12" d="M4.482-1A5.482,5.482,0,1,1-1,4.482,5.489,5.489,0,0,1,4.482-1Zm0,8.224A2.741,2.741,0,1,0,1.741,4.482,2.744,2.744,0,0,0,4.482,7.224Z" transform="translate(9.224 9.224)" fill="#3f3c9a"/>
</svg>
