<svg xmlns="http://www.w3.org/2000/svg" width="28.849" height="28.901" viewBox="0 0 28.849 28.901">
  <path id="phone" d="M26.006,29.9c-.118,0-.238-.005-.356-.016l-.024,0a27.534,27.534,0,0,1-11.944-4.248,27.2,27.2,0,0,1-8.3-8.3,27.533,27.533,0,0,1-4.248-12l0-.021A3.954,3.954,0,0,1,5.062,1H9.044a3.972,3.972,0,0,1,3.915,3.4l0,.012a15.628,15.628,0,0,0,.851,3.415A3.964,3.964,0,0,1,12.92,12L12.915,12l-.945.945a19.785,19.785,0,0,0,6.044,6.044l.945-.945.005-.005a3.953,3.953,0,0,1,4.171-.89,15.62,15.62,0,0,0,3.412.85l.012,0a3.953,3.953,0,0,1,3.4,4v3.939A3.954,3.954,0,0,1,26.006,29.9ZM25.9,27.26a1.318,1.318,0,0,0,1.426-1.319V21.982q0-.016,0-.033A1.318,1.318,0,0,0,26.2,20.612a18.265,18.265,0,0,1-3.985-.993,1.318,1.318,0,0,0-1.392.294l-1.67,1.67a1.318,1.318,0,0,1-1.583.214,22.416,22.416,0,0,1-8.4-8.4,1.318,1.318,0,0,1,.214-1.583l1.671-1.671a1.322,1.322,0,0,0,.294-1.388,18.274,18.274,0,0,1-.994-3.987,1.324,1.324,0,0,0-1.3-1.129H5.063A1.318,1.318,0,0,0,3.752,5.064,24.884,24.884,0,0,0,7.593,15.9l.006.01a24.542,24.542,0,0,0,7.5,7.5l.01.007A24.885,24.885,0,0,0,25.9,27.26Z" transform="translate(-1.112 -1)" fill="#3f3c9a"/>
</svg>
