<svg xmlns="http://www.w3.org/2000/svg" width="23.126" height="23.127" viewBox="0 0 23.126 23.127">
  <path id="Path_256" data-name="Path 256" d="M553.127,2735.906a11.565,11.565,0,0,0-9.8,17.71l.275.437-1.168,4.266,4.376-1.148.422.252a11.546,11.546,0,0,0,5.885,1.61h.005a11.564,11.564,0,0,0,0-23.127Zm6.8,16.528a3.582,3.582,0,0,1-2.347,1.653,4.772,4.772,0,0,1-2.189-.138,20,20,0,0,1-1.982-.733,15.483,15.483,0,0,1-5.938-5.247,6.754,6.754,0,0,1-1.42-3.6,3.9,3.9,0,0,1,1.216-2.9,1.276,1.276,0,0,1,.928-.436c.231,0,.464,0,.667.012s.5-.081.781.6c.29.7.985,2.406,1.072,2.579a.643.643,0,0,1,.029.61,2.361,2.361,0,0,1-.347.579c-.174.2-.366.454-.522.61-.175.173-.356.362-.153.709a10.482,10.482,0,0,0,1.934,2.408,9.5,9.5,0,0,0,2.8,1.724c.347.175.551.146.753-.086s.869-1.014,1.1-1.362.463-.29.783-.175,2.027.957,2.374,1.131.58.261.667.406A2.9,2.9,0,0,1,559.929,2752.434Z" transform="translate(-541.559 -2735.906)" fill="#fff" fill-rule="evenodd"/>
</svg>
